<mxfile host="app.diagrams.net" modified="2022-02-12T05:52:33.080Z" agent="5.0 (Windows NT 10.0; Win64; x64) AppleWebKit/537.36 (KHTML, like Gecko) Chrome/98.0.4758.82 Safari/537.36" etag="ZpJz6NgbgWfFisUybCMl" version="16.4.7" type="github">
  <diagram id="0hY6PGOOV5obfQBKM8x1" name="SmartContract">
    <mxGraphModel dx="780" dy="1104" grid="0" gridSize="10" guides="1" tooltips="1" connect="1" arrows="1" fold="1" page="1" pageScale="1" pageWidth="850" pageHeight="1100" math="0" shadow="0">
      <root>
        <mxCell id="0" />
        <mxCell id="1" parent="0" />
        <mxCell id="LoLLh_Nv510_iAxGr4aH-1" value="Utils" style="rounded=0;whiteSpace=wrap;html=1;fillColor=#3399FF;strokeColor=#6c8ebf;" vertex="1" parent="1">
          <mxGeometry x="260" y="530" width="220" height="40" as="geometry" />
        </mxCell>
        <mxCell id="LoLLh_Nv510_iAxGr4aH-2" value="Database" style="rounded=0;whiteSpace=wrap;html=1;fillColor=#3399FF;strokeColor=#6c8ebf;" vertex="1" parent="1">
          <mxGeometry x="500" y="530" width="220" height="40" as="geometry" />
        </mxCell>
        <mxCell id="LoLLh_Nv510_iAxGr4aH-3" value="P2P" style="rounded=0;whiteSpace=wrap;html=1;fillColor=#3399FF;strokeColor=#6c8ebf;" vertex="1" parent="1">
          <mxGeometry x="260" y="480" width="100" height="40" as="geometry" />
        </mxCell>
        <mxCell id="LoLLh_Nv510_iAxGr4aH-5" value="Incentive" style="rounded=0;whiteSpace=wrap;html=1;fillColor=#3399FF;strokeColor=#6c8ebf;" vertex="1" parent="1">
          <mxGeometry x="500" y="480" width="100" height="40" as="geometry" />
        </mxCell>
        <mxCell id="LoLLh_Nv510_iAxGr4aH-6" value="Consensus" style="rounded=0;whiteSpace=wrap;html=1;fillColor=#3399FF;strokeColor=#6c8ebf;" vertex="1" parent="1">
          <mxGeometry x="380" y="480" width="100" height="40" as="geometry" />
        </mxCell>
        <mxCell id="LoLLh_Nv510_iAxGr4aH-7" value="Ledger" style="rounded=0;whiteSpace=wrap;html=1;fillColor=#3399FF;strokeColor=#6c8ebf;" vertex="1" parent="1">
          <mxGeometry x="620" y="480" width="100" height="40" as="geometry" />
        </mxCell>
        <mxCell id="LoLLh_Nv510_iAxGr4aH-8" value="Virtual Machine" style="rounded=0;whiteSpace=wrap;html=1;fillColor=#3399FF;strokeColor=#6c8ebf;" vertex="1" parent="1">
          <mxGeometry x="260" y="430" width="460" height="40" as="geometry" />
        </mxCell>
        <mxCell id="LoLLh_Nv510_iAxGr4aH-9" value="Smart Contract" style="rounded=0;whiteSpace=wrap;html=1;fillColor=#ffe6cc;strokeColor=#d79b00;" vertex="1" parent="1">
          <mxGeometry x="260" y="380" width="220" height="40" as="geometry" />
        </mxCell>
        <mxCell id="LoLLh_Nv510_iAxGr4aH-10" value="RPC" style="rounded=0;whiteSpace=wrap;html=1;fillColor=#3399FF;strokeColor=#6c8ebf;" vertex="1" parent="1">
          <mxGeometry x="500" y="380" width="220" height="40" as="geometry" />
        </mxCell>
        <mxCell id="LoLLh_Nv510_iAxGr4aH-11" value="Application" style="rounded=0;whiteSpace=wrap;html=1;fillColor=#3399FF;strokeColor=#6c8ebf;" vertex="1" parent="1">
          <mxGeometry x="260" y="330" width="460" height="40" as="geometry" />
        </mxCell>
      </root>
    </mxGraphModel>
  </diagram>
</mxfile>
